<svg width="30" height="23" viewBox="0 0 30 23" fill="none" xmlns="http://www.w3.org/2000/svg">
<path d="M4.808 22.496C4.31733 22.5173 3.848 22.4747 3.4 22.368C2.97333 22.2613 2.55733 22.1013 2.152 21.888C1.36267 21.44 0.968 20.864 0.968 20.16C0.968 18.624 2.792 17.0773 6.44 15.52C6.61067 15.2853 6.96267 14.8373 7.496 14.176C7.752 13.8347 8.05067 13.4507 8.392 13.024C8.75467 12.576 9.14933 12.0853 9.576 11.552C10.3013 10.6347 10.984 9.792 11.624 9.024C12.2853 8.256 12.9147 7.552 13.512 6.912C13.1707 7.06133 12.84 7.2 12.52 7.328C12.2213 7.43467 11.9227 7.53067 11.624 7.616C11.6667 7.57333 11.7413 7.50933 11.848 7.424C11.976 7.31733 12.1253 7.21067 12.296 7.104C12.4667 6.99733 12.6587 6.86933 12.872 6.72C13.0853 6.54933 13.3307 6.37867 13.608 6.208L15.336 5.056C15.592 4.8 16.0293 4.672 16.648 4.672C17.0107 4.672 17.2453 4.75733 17.352 4.928C17.352 4.94933 17.352 4.97067 17.352 4.992C17.3733 4.992 17.384 5.00267 17.384 5.024C17.384 5.216 17.2027 5.46133 16.84 5.76C16.2853 6.22933 15.528 6.944 14.568 7.904C13.608 8.84267 12.4453 10.0267 11.08 11.456C10.9093 11.6267 10.7173 11.8293 10.504 12.064C10.2907 12.2987 10.0667 12.5653 9.832 12.864L8.2 14.848C8.86133 14.6133 9.53333 14.4 10.216 14.208C10.92 14.016 11.6347 13.8347 12.36 13.664C12.4027 13.6427 12.5093 13.632 12.68 13.632C12.9147 13.632 13.032 13.6747 13.032 13.76C13.032 13.9093 12.7333 14.048 12.136 14.176C10.9413 14.432 9.81067 14.848 8.744 15.424C7.74133 15.936 7.10133 16.4267 6.824 16.896C6.14133 17.8347 5.8 18.528 5.8 18.976C5.8 19.232 5.88533 19.36 6.056 19.36C6.568 19.36 7.03733 19.1787 7.464 18.816C7.63467 18.7093 7.816 18.656 8.008 18.656C8.17867 18.6133 8.264 18.6347 8.264 18.72C8.264 18.7413 8.24267 18.7733 8.2 18.816C6.70667 19.7973 5.58667 20.288 4.84 20.288C4.43467 20.288 4.232 20.1173 4.232 19.776C4.232 19.6907 4.24267 19.6053 4.264 19.52C4.30667 19.4133 4.34933 19.2853 4.392 19.136C4.49867 18.88 4.65867 18.5493 4.872 18.144C5.08533 17.7173 5.34133 17.2267 5.64 16.672C2.99467 17.9093 1.672 19.0613 1.672 20.128C1.672 20.6187 1.96 21.0027 2.536 21.28C3.112 21.5573 3.80533 21.6853 4.616 21.664C5.42667 21.6213 6.32267 21.5147 7.304 21.344C8.28533 21.1947 9.352 20.9707 10.504 20.672C11.4213 20.4373 12.2213 20.2133 12.904 20C13.608 19.7653 14.1947 19.5413 14.664 19.328C17.8 17.8773 20.5733 15.904 22.984 13.408C25.5013 10.8267 26.76 8.49067 26.76 6.4C26.76 3.02933 23.2613 1.41867 16.264 1.568C14.4933 1.58933 12.5947 1.97333 10.568 2.72C7.85867 3.70133 6.20533 4.992 5.608 6.592C5.52267 6.76267 5.48 6.98667 5.48 7.264C5.48 7.75467 5.61867 8.20267 5.896 8.608C6.19467 9.01333 6.52533 9.25867 6.888 9.344C7.272 9.42933 7.464 9.57867 7.464 9.792C7.464 9.96267 7.304 10.016 6.984 9.952C6.32267 9.824 5.736 9.472 5.224 8.896C4.712 8.29867 4.456 7.69067 4.456 7.072C4.456 6.752 4.49867 6.50667 4.584 6.336C5.26667 4.48 6.824 3.072 9.256 2.112C10.216 1.728 11.2507 1.42933 12.36 1.216C13.4907 0.981332 14.6853 0.863998 15.944 0.863998H16.936C20.5627 0.863998 23.304 1.39733 25.16 2.464C26.9947 3.53067 27.912 4.992 27.912 6.848C27.912 9.06667 26.7493 11.4347 24.424 13.952C22.0987 16.4693 19.2187 18.496 15.784 20.032C12.456 21.5253 8.79733 22.3467 4.808 22.496ZM27.2178 19.808C26.4711 19.808 26.2258 19.648 26.4818 19.328C26.5671 19.2427 26.6524 19.1467 26.7378 19.04C26.8231 18.9333 26.9084 18.8267 26.9938 18.72C27.0791 18.6133 27.1751 18.5067 27.2818 18.4C27.3884 18.272 27.4951 18.144 27.6018 18.016C27.9431 17.7387 28.3058 17.6 28.6898 17.6C28.9458 17.6 29.0738 17.7067 29.0738 17.92C29.0738 18.0907 28.9991 18.3147 28.8498 18.592C28.6151 18.9973 28.4124 19.3067 28.2418 19.52C28.0711 19.712 27.7298 19.808 27.2178 19.808Z" fill="white"/>
</svg>
